<svg xmlns="http://www.w3.org/2000/svg" xmlns:xlink="http://www.w3.org/1999/xlink" version="1.1" x="0px" y="0px" viewBox="0 0 66 82.5" enable-background="new 0 0 66 66" xml:space="preserve" fill="#fff">
	<g>
		<g>
			<path d="M22,15.5l5.7,1.7l0.1,1.6c1.5-0.9,4-1,5.2-1c1.1,0,3.7,0.1,5.3,1.1l0.1-1.6l2.5-0.8V18l-0.8,1.1c-0.1,0.1-0.1,0.3-0.1,0.4    v2.6c0,0.4,0.3,0.6,0.6,0.6h2c0.4,0,0.6-0.3,0.6-0.6v-2.6c0-0.1,0-0.3-0.1-0.4L42,18v-2l1.7-0.5c0.3-0.1,0.4-0.3,0.5-0.6    c0-0.3-0.1-0.5-0.4-0.6L33.1,9.7c-0.2-0.1-0.3-0.1-0.5,0l-10.7,4.6c-0.2,0.1-0.4,0.4-0.4,0.6C21.5,15.2,21.7,15.4,22,15.5z" />
		</g>
		<g>
			<path d="M37.5,20c-1.9-1.3-8.1-1.2-9.4,0.1c-0.1,0.1-0.1,0.2-0.2,0.3c-1.5,4.3,1.5,9,4.9,9c3.4,0,6.5-4.7,4.9-9.1    C37.8,20.2,37.7,20.1,37.5,20z" />
		</g>
		<g>
			<path d="M43.6,38.5c0.4-0.2,0.9-0.3,1.4-0.4l-0.3-4.3c-0.2-1.2-0.4-2.6-2.1-3.1c-1.8-0.6-2.2-0.9-4.3-1.1c-0.2,0-0.5,0-0.7,0.3    c-0.1,0.2-0.2,0.4-0.1,0.6c0.8,2.7,0.7,5.4-2.5,9l-0.3-4.5H35c0.4,0,0.6-0.3,0.6-0.6V32c0-0.4-0.3-0.6-0.6-0.6h-4    c-0.4,0-0.6,0.3-0.6,0.6v2.1c0,0.4,0.3,0.6,0.6,0.6h0.4l-0.3,4.5c-3.2-3.6-3.4-6.4-2.5-9c0.1-0.2,0-0.4-0.1-0.6    c-0.2-0.2-0.6-0.3-0.7-0.3c-2.2,0.2-2.5,0.6-4.3,1.1c-1.8,0.5-2,1.9-2.1,3.1L21,38c0.5,0.1,0.9,0.3,1.4,0.4c2.4,0.9,4,1,4.5,4.9    c0,0.1,0.2,3.4,0.2,3.2h11.8c0-0.1,0.2-3.4,0.2-3.2C39.7,39.5,41.4,39.3,43.6,38.5z" />
		</g>
		<g>
			<path d="M2.9,25.4L4.6,26v2L3.7,29c-0.1,0.1-0.1,0.3-0.1,0.4V32c0,0.4,0.3,0.6,0.6,0.6h2c0.4,0,0.6-0.3,0.6-0.6v-2.6    c0-0.1,0-0.3-0.1-0.4l-0.9-1.1v-1.6l2.5,0.8l0.1,1.6c1.5-1,4.2-1.1,5.3-1.1c1.1,0,3.7,0.1,5.2,1l0.1-1.6l5.7-1.7    c0.3-0.1,0.4-0.3,0.5-0.6c0-0.3-0.1-0.5-0.4-0.6L14,19.6c-0.2-0.1-0.4-0.1-0.5,0L2.8,24.2c-0.2,0.1-0.4,0.4-0.4,0.6    C2.4,25.1,2.6,25.3,2.9,25.4z" />
		</g>
		<g>
			<path d="M18.4,30c-1.3-1.3-7.5-1.4-9.4-0.1c-0.1,0.1-0.2,0.2-0.3,0.3c-1.6,4.4,1.5,9.1,4.9,9.1c3.4,0,6.5-4.7,4.9-9    C18.6,30.2,18.5,30.1,18.4,30z" />
		</g>
		<g>
			<path d="M23.2,40.4c-1.8-0.6-2.2-0.9-4.3-1.1c-0.2,0-0.5,0-0.7,0.3C18,39.7,17.9,40,18,40.2c0.8,2.6,0.7,5.4-2.5,9l-0.3-4.5h0.4    c0.4,0,0.6-0.3,0.6-0.6v-2.1c0-0.4-0.3-0.6-0.6-0.6h-4c-0.4,0-0.6,0.3-0.6,0.6V44c0,0.4,0.3,0.6,0.6,0.6H12l-0.3,4.5    c-3.2-3.6-3.4-6.3-2.5-9c0.1-0.2,0-0.4-0.1-0.6c-0.2-0.2-0.6-0.3-0.7-0.3c-2.2,0.2-2.5,0.6-4.3,1.1c-1.8,0.5-2,1.9-2.1,3.1L1,55.7    c0,0.2,0.1,0.4,0.2,0.5c0.1,0.1,0.3,0.2,0.5,0.2h23.9c0.2,0,0.3-0.1,0.5-0.2c0.1-0.1,0.2-0.3,0.2-0.5l-0.8-12.1    C25.1,42.4,24.9,41,23.2,40.4z" />
		</g>
		<g>
			<path d="M40.9,24.8c0,0.3,0.2,0.5,0.5,0.6l5.7,1.7l0.1,1.6c1.5-0.9,4-1,5.2-1c1.1,0,3.7,0.1,5.3,1.1l0.1-1.6l2.5-0.8v1.6L59.2,29    c-0.1,0.1-0.1,0.3-0.1,0.4V32c0,0.4,0.3,0.6,0.6,0.6h2c0.4,0,0.6-0.3,0.6-0.6v-2.6c0-0.1,0-0.3-0.1-0.4l-0.9-1.1v-2l1.7-0.5    c0.3-0.1,0.4-0.3,0.5-0.6c0-0.3-0.1-0.5-0.4-0.6l-10.7-4.6c-0.2-0.1-0.3-0.1-0.5,0l-10.7,4.6C41.1,24.3,40.9,24.5,40.9,24.8z" />
		</g>
		<g>
			<path d="M57,29.9c-1.9-1.3-8.1-1.2-9.4,0.1c-0.1,0.1-0.1,0.2-0.2,0.3c-1.5,4.3,1.5,9,4.9,9c3.4,0,6.5-4.7,4.9-9.1    C57.2,30.1,57.1,30,57,29.9z" />
		</g>
		<g>
			<path d="M64.2,43.6C64,42.4,63.8,41,62,40.4c-1.8-0.6-2.2-0.9-4.3-1.1c-0.2,0-0.5,0-0.7,0.3c-0.1,0.2-0.2,0.4-0.1,0.6    c0.8,2.7,0.7,5.4-2.5,9L54,44.7h0.4c0.4,0,0.6-0.3,0.6-0.6v-2.1c0-0.4-0.3-0.6-0.6-0.6h-4c-0.4,0-0.6,0.3-0.6,0.6V44    c0,0.4,0.3,0.6,0.6,0.6h0.4l-0.3,4.5c-3.2-3.6-3.4-6.4-2.5-9c0.1-0.2,0-0.4-0.1-0.6c-0.2-0.2-0.6-0.3-0.7-0.3    c-2.2,0.2-2.5,0.6-4.3,1.1c-1.8,0.5-2,1.9-2.1,3.1l-0.8,12.1c0,0.2,0.1,0.4,0.2,0.5c0.1,0.1,0.3,0.2,0.5,0.2h23.9    c0.2,0,0.3-0.1,0.5-0.2c0.1-0.1,0.2-0.3,0.2-0.5L64.2,43.6z" />
		</g>
	</g>
</svg>
