<svg xmlns="http://www.w3.org/2000/svg" xmlns:xlink="http://www.w3.org/1999/xlink" version="1.1" x="0px" y="0px" viewBox="0 0 64 80" style="enable-background:new 0 0 64 64;" xml:space="preserve" fill="#fff">
	<g>
		<g>
			<g>
				<g>
					<path d="M57.292,15.951c-0.246,0-0.486-0.119-0.632-0.34C51.244,7.409,42.163,2.512,32.37,2.512      c-9.069,0-17.461,4.13-23.024,11.331c-0.256,0.329-0.73,0.392-1.061,0.136c-0.33-0.256-0.391-0.73-0.136-1.061      C14.001,5.344,22.829,1,32.37,1c10.303,0,19.854,5.151,25.552,13.778c0.23,0.349,0.134,0.817-0.215,1.048      C57.579,15.91,57.435,15.951,57.292,15.951z" />
					<path d="M58.45,16.673h-4.745c-0.417,0-0.756-0.339-0.756-0.756c0-0.417,0.339-0.756,0.756-0.756h3.983l-0.03-3.689      c-0.003-0.417,0.333-0.759,0.75-0.762c0.458-0.001,0.76,0.333,0.762,0.75l0.035,4.451c0.002,0.202-0.078,0.396-0.22,0.539      S58.651,16.673,58.45,16.673z" />
				</g>
				<g>
					<path d="M41.263,61.105c-0.322,0-0.62-0.207-0.722-0.531c-0.125-0.399,0.097-0.823,0.496-0.947      c12.231-3.821,20.45-15.033,20.45-27.9c0-3.613-0.649-7.139-1.93-10.479c-0.15-0.39,0.045-0.827,0.435-0.977      c0.391-0.151,0.827,0.044,0.977,0.435c1.347,3.515,2.03,7.222,2.03,11.02c0,13.532-8.645,25.323-21.511,29.343      C41.414,61.094,41.338,61.105,41.263,61.105z" />
					<path d="M44.116,63c-0.103,0-0.209-0.021-0.309-0.066l-4.051-1.816c-0.201-0.091-0.352-0.264-0.415-0.475      c-0.063-0.211-0.031-0.439,0.089-0.624l2.404-3.741c0.226-0.351,0.694-0.455,1.045-0.227c0.351,0.225,0.453,0.693,0.227,1.045      l-1.929,3.002l3.249,1.457c0.381,0.171,0.551,0.618,0.381,0.999C44.68,62.834,44.405,63,44.116,63z" />
				</g>
				<g>
					<path d="M32.37,62.455c-16.889,0-30.629-13.785-30.629-30.728c0-3.759,1.786-8.406,3.089-11.799l0.176-0.458      c0.15-0.39,0.586-0.586,0.977-0.435c0.39,0.15,0.585,0.587,0.435,0.977l-0.176,0.459c-1.261,3.283-2.989,7.779-2.989,11.257      c0,16.109,13.061,29.216,29.117,29.216c0.405,0,0.805-0.009,1.206-0.025c0.368-0.041,0.77,0.307,0.786,0.725      c0.018,0.417-0.307,0.769-0.725,0.786C33.217,62.447,32.795,62.455,32.37,62.455z" />
					<path d="M7.592,24.727c-0.289,0-0.566-0.167-0.691-0.449l-1.556-3.501L2.1,22.43c-0.374,0.19-0.828,0.041-1.017-0.33      c-0.19-0.372-0.042-0.828,0.33-1.017l3.957-2.015c0.186-0.095,0.401-0.107,0.597-0.039c0.195,0.07,0.353,0.217,0.438,0.406      l1.879,4.229c0.169,0.382-0.003,0.829-0.384,0.998C7.8,24.706,7.696,24.727,7.592,24.727z" />
				</g>
			</g>
			<g>
				<path d="M32.258,25.634c-1.629,0-3.177,0.654-4.355,1.841c-1.179,1.189-1.829,2.752-1.829,4.398c0,1.647,0.65,3.208,1.829,4.398     c1.178,1.188,2.725,1.842,4.355,1.842c1.631,0,3.178-0.654,4.355-1.842c1.18-1.188,1.83-2.751,1.83-4.398     c0-1.614-0.652-3.176-1.834-4.402C35.432,26.287,33.887,25.634,32.258,25.634z" />
				<path d="M51.517,28.398c-0.159-1.068-1.002-1.844-2.004-1.844h-3.267c-0.039-0.129-0.079-0.255-0.155-0.445     c-0.043-0.089-0.083-0.186-0.123-0.286c-0.012-0.031-0.025-0.062-0.037-0.093l2.333-2.353c0.369-0.372,0.576-0.887,0.566-1.414     c-0.01-0.518-0.218-0.991-0.564-1.314l-4.795-4.866c-0.37-0.374-0.929-0.603-1.41-0.573c-0.518,0.009-0.991,0.22-1.316,0.573     l-2.325,2.344c-0.052-0.023-0.106-0.045-0.159-0.068l-0.206-0.086c-0.131-0.066-0.28-0.129-0.446-0.188v-3.269     c0-1.097-0.855-1.955-1.945-1.955h-6.81c-1.091,0-1.945,0.858-1.945,1.955v3.299c-0.129,0.04-0.254,0.08-0.442,0.157     c-0.088,0.043-0.184,0.083-0.283,0.123c-0.028,0.012-0.055,0.023-0.083,0.034l-2.329-2.347c-0.371-0.375-0.907-0.603-1.413-0.573     c-0.517,0.01-0.99,0.221-1.313,0.573l-4.826,4.864c-0.369,0.372-0.576,0.887-0.566,1.414c0.01,0.518,0.218,0.991,0.566,1.316     l2.33,2.349c-0.025,0.057-0.048,0.114-0.072,0.172l-0.086,0.21c-0.066,0.132-0.127,0.281-0.185,0.445h-3.236     c-1.092,0-1.946,0.858-1.946,1.955l0.001,6.859c-0.026,0.527,0.159,1.027,0.521,1.407c0.354,0.371,0.85,0.585,1.359,0.585h3.267     c0.039,0.13,0.079,0.255,0.123,0.374c0.055,0.148,0.116,0.306,0.186,0.465l-2.261,2.337c-0.369,0.371-0.576,0.887-0.566,1.413     c0.009,0.518,0.218,0.992,0.566,1.318l4.826,4.863c0.362,0.365,0.862,0.574,1.375,0.573c0.012,0,0.024,0,0.034,0     c0.518-0.009,0.991-0.22,1.316-0.573l2.325-2.343c0.054,0.023,0.108,0.045,0.162,0.068l0.203,0.085     c0.131,0.066,0.28,0.129,0.446,0.188v3.269c0,1.097,0.855,1.955,1.945,1.955h6.842c1.092,0,1.946-0.858,1.946-1.955v-3.299     c0-0.001,0-0.001,0.001-0.001c0.128-0.039,0.252-0.079,0.369-0.123c0.135-0.051,0.288-0.111,0.447-0.181l2.319,2.338     c0.37,0.374,0.925,0.56,1.41,0.573c0.518-0.009,0.991-0.22,1.316-0.573l4.825-4.863c0.37-0.373,0.576-0.888,0.566-1.415     c-0.01-0.516-0.218-0.99-0.566-1.316L46,38.187c0.025-0.057,0.048-0.114,0.072-0.172l0.086-0.209     c0.065-0.132,0.127-0.281,0.185-0.446h3.236c1.092,0,1.946-0.858,1.946-1.955v-6.895C51.525,28.472,51.522,28.434,51.517,28.398z      M37.687,37.336c-1.463,1.476-3.392,2.289-5.429,2.289c-2.036,0-3.964-0.813-5.429-2.289c-1.463-1.474-2.268-3.414-2.268-5.463     c0-2.048,0.805-3.987,2.268-5.463c1.465-1.476,3.393-2.288,5.429-2.288c2.037,0,3.965,0.812,5.429,2.288     c0.003,0.002,0.005,0.005,0.007,0.007c1.459,1.509,2.262,3.447,2.262,5.456C39.956,33.923,39.15,35.862,37.687,37.336z" />
			</g>
		</g>
	</g>
</svg>
