<svg xmlns="http://www.w3.org/2000/svg" xmlns:xlink="http://www.w3.org/1999/xlink" version="1.1" x="0px" y="0px" viewBox="0 0 500 625" style="enable-background:new 0 0 500 500;" xml:space="preserve">
	<g>
		<path d="M250,27.6C127.2,27.6,27.6,127.1,27.6,250S127.2,472.4,250,472.4S472.4,372.8,472.4,250   S372.8,27.6,250,27.6z M341.8,280.2c-1.5,1.5-2.2,3.6-1.9,5.7l18.3,106.8c0.9,5.3-4.6,9.3-9.3,6.8L253,349.1c-1.9-1-4.1-1-6,0   l-95.9,50.4c-4.7,2.5-10.2-1.5-9.3-6.8l18.3-106.8c0.4-2.1-0.3-4.2-1.9-5.7l-77.6-75.6c-3.8-3.7-1.7-10.2,3.6-11L191.4,178   c2.1-0.3,3.9-1.6,4.9-3.5l47.9-97.2c2.4-4.8,9.2-4.8,11.5,0l47.9,97.2c0.9,1.9,2.8,3.2,4.9,3.5l107.2,15.6c5.3,0.8,7.4,7.3,3.6,11   L341.8,280.2z" />
		<g>
			<path d="M250,22.6c-47.1,0.1-93.5,14.7-131.9,42.1c-37.2,26.6-65.9,64-81.7,107c-16.5,44.8-18.3,94.8-5.2,140.7    c12.5,44,38.6,83.9,73.9,112.9c35.9,29.6,80.3,47.6,126.7,51.4c47.2,3.8,95.3-7.5,135.8-32c39.1-23.7,70.9-59.3,89.7-101    c19.5-43.4,25-92.3,15.6-139c-9-45-32.2-86.9-65.4-118.7C374.1,53.9,331,32.3,285.2,25.3C273.6,23.5,261.8,22.6,250,22.6    c-6.4,0-6.4,10,0,10c45.2,0.1,89.4,14.2,126.3,40.4c35.7,25.4,63.5,62,78.3,103.3c15.3,42.7,16.9,89.9,4.5,133.5    c-12.1,42.4-37.3,80.5-71.4,108.5c-70.4,58-173.1,64.9-250.9,17.5c-37.1-22.6-66.9-56.4-85-95.9C32.9,298.3,27.8,250.7,37,206    c18.2-88,91-157.1,179.7-170.9c11-1.7,22.1-2.5,33.3-2.5C256.4,32.6,256.4,22.5,250,22.6z" />
			<path d="M338.2,276.7c-5.3,6.6-2.4,14.9-1.1,22.6c2,11.7,4,23.3,6,35c2.2,12.8,4.4,25.5,6.6,38.3    c0.8,4.7,1.6,9.5,2.4,14.2c0.3,1.8,1.5,5,1.2,6.9c-0.7,3.9-10.2-2.8-12.1-3.8c-10.4-5.5-20.8-10.9-31.2-16.4    c-18-9.5-35.8-19.6-54.1-28.4c-7.1-3.4-12.4,0.3-18.5,3.5c-9.7,5.1-19.4,10.2-29.1,15.3c-11.7,6.2-23.4,12.3-35.2,18.5    c-7.6,4-15.2,8.6-23,12.1c-1.4,0.7-3,1.7-3.5-0.6c-0.4-1.8,0.9-5.2,1.2-7c1.8-10.7,3.7-21.3,5.5-32c3.7-21.8,7.5-43.6,11.2-65.4    c0.7-4,0.8-7.9-1.8-11.4c-1.2-1.6-2.8-3-4.2-4.4c-7.1-6.9-14.2-13.8-21.3-20.7c-16.7-16.3-33.5-32.6-50.2-48.9    c-0.7-0.7-3.2-2.4-3.4-3.5c-0.3-2.2,3.6-2.2,5.1-2.4c9.3-1.3,18.5-2.7,27.8-4c23.6-3.4,47.2-6.9,70.8-10.3    c5.9-0.9,10.7-1.9,13.8-7.9c3.8-7.3,7.3-14.7,10.9-22.1c10.9-22.1,21.8-44.1,32.7-66.2c1.1-2.3,2.1-4.8,3.4-6.9    c1.3-2.1,2.3-2,3.6,0c4,6.2,6.8,13.8,10.1,20.4c11,22.3,22,44.6,33,66.9c2.9,5.9,5.2,13.4,12.4,15c6,1.4,12.3,1.8,18.4,2.7    c24.9,3.6,49.8,7.2,74.7,10.9c1.8,0.3,16.3,0.9,15.9,4c-0.2,1.3-2.9,3.1-3.7,3.8c-2.8,2.8-5.7,5.5-8.5,8.3    c-18,17.6-36.1,35.2-54.1,52.8C346.1,269.1,342.1,272.9,338.2,276.7c-4.6,4.5,2.5,11.6,7.1,7.1c13.8-13.4,27.5-26.8,41.3-40.3    c9-8.8,18.1-17.6,27.1-26.4c4.4-4.3,12.3-9.8,12.6-16.5c0.5-11-9.9-11.9-17.8-13.1c-11.5-1.7-23.1-3.4-34.6-5    c-13.3-1.9-26.6-3.9-39.8-5.8c-7.6-1.1-16.1-1.3-23.5-3.4c-4-1.1-5.8-8.2-7.5-11.6c-5.5-11.1-11-22.2-16.5-33.3    c-5.8-11.8-11.6-23.6-17.5-35.4c-2.9-6-5.6-12.3-8.9-18.1c-4-6.9-13.5-8.3-18.8-2.1c-1.4,1.6-2.3,3.8-3.2,5.7    c-4.5,9.1-9,18.3-13.5,27.4c-10.4,21.1-20.8,42.1-31.2,63.2c-0.9,1.9-1.3,3.5-3.4,4.2c-1.9,0.6-4.3,0.6-6.2,0.9    c-10.7,1.6-21.5,3.1-32.2,4.7c-22.3,3.2-44.8,6.2-67.1,9.7c-10.4,1.7-14.1,12.7-6.7,20.3c5.8,5.9,11.9,11.6,17.9,17.4    c17.9,17.4,35.8,34.9,53.7,52.3c1.5,1.5,3.9,3.1,5.1,5c1,1.5,0.6,2.1,0.3,3.9c-1.7,9.7-3.3,19.3-5,29c-4,23.6-8.1,47.2-12.1,70.7    c-0.4,2.2-1,4.6-1,6.8c0.1,8.9,9.5,13.3,17,9.8c5.8-2.8,11.5-6,17.2-9c22.6-11.9,45.3-23.8,67.9-35.7c3.1-1.7,9-6.5,12.6-5.2    c2.6,0.9,5.2,2.8,7.7,4.1c4.6,2.4,9.2,4.8,13.7,7.2c22.2,11.7,44.4,23.3,66.6,35c2.2,1.2,4.4,2.4,6.6,3.5c6.1,3,13.6,1.3,16.4-5.3    c2.4-5.7-0.7-15.1-1.7-20.9c-4.3-25.3-8.7-50.6-13-75.9c-0.7-4-1.4-8-2.1-12c-0.3-1.6-1.4-4.3-0.3-5.7    C349.3,278.8,342.3,271.7,338.2,276.7z" />
		</g>
	</g>
</svg>
