<svg xmlns="http://www.w3.org/2000/svg" xmlns:xlink="http://www.w3.org/1999/xlink" version="1.1" x="0px" y="0px" viewBox="0 0 64 80" style="enable-background:new 0 0 64 64;" xml:space="preserve" fill="#fff">
	<rect x="27" y="39" width="10" height="2" />
	<rect x="29" y="42" width="6" height="2" />
	<path d="M30.859,15.063c-4.622,0.511-8.358,4.304-8.81,8.933c-0.339,3.474,1.105,6.622,3.521,8.652  c0.904,0.76,1.43,1.876,1.43,3.057V38h4v-4.52l-3.959-3.167C26.379,29.783,26,28.994,26,28.148v-0.377  C26,26.243,27.243,25,28.771,25h0.28c0.929,0,1.791,0.462,2.306,1.234c0.207,0.31,0.518,0.344,0.642,0.344s0.436-0.034,0.642-0.344  C33.157,25.462,34.019,25,34.948,25h0.28C36.757,25,38,26.243,38,27.771v0.495c0,0.74-0.289,1.437-0.812,1.96l-2.48,2.48  l-1.414-1.414l2.481-2.481C35.92,28.666,36,28.473,36,28.267v-0.495C36,27.346,35.654,27,35.229,27h-0.28  c-0.259,0-0.499,0.129-0.642,0.344c-0.515,0.772-1.377,1.234-2.306,1.234s-1.791-0.462-2.306-1.234  C29.55,27.129,29.311,27,29.052,27h-0.28C28.346,27,28,27.346,28,27.771v0.377c0,0.235,0.106,0.455,0.291,0.604l4.334,3.467  C32.862,32.409,33,32.696,33,33v5h4v-2.295c0-1.169,0.505-2.286,1.403-3.034C40.6,30.838,42,28.085,42,25  C42,19.101,36.893,14.396,30.859,15.063z" />
	<rect x="31" y="10" width="2" height="3" />
	<rect x="44" y="22" width="3" height="2" />
	<rect x="17" y="22" width="3" height="2" />
	<rect x="20.747" y="13.561" transform="matrix(0.7071 -0.7071 0.7071 0.7071 -4.2798 19.7886)" width="2" height="3" />
	<rect x="40.753" y="14.061" transform="matrix(0.7071 -0.7071 0.7071 0.7071 1.7262 34.2885)" width="3" height="2" />
	<path d="M32,2C18.193,2,7,13.193,7,27s11.193,25,25,25s25-11.193,25-25S45.807,2,32,2z M32,47c-11.046,0-20-8.954-20-20  c0-11.046,8.954-20,20-20s20,8.954,20,20C52,38.046,43.046,47,32,47z" />
	<path d="M24,51.74V57h3v5h10v-5h3v-5.26C37.479,52.555,34.792,53,32,53S26.521,52.555,24,51.74z" />
</svg>
